<?xml version="1.0" encoding="utf-8"?>
<!-- Generator: Adobe Illustrator 16.0.0, SVG Export Plug-In . SVG Version: 6.00 Build 0)  -->
<!DOCTYPE svg PUBLIC "-//W3C//DTD SVG 1.1//EN" "http://www.w3.org/Graphics/SVG/1.1/DTD/svg11.dtd">
<svg version="1.1" id="Layer_1" xmlns="http://www.w3.org/2000/svg" xmlns:xlink="http://www.w3.org/1999/xlink" x="0px" y="0px"
	 width="178.3px" height="83.9px" viewBox="0 0 178.3 83.9" style="enable-background:new 0 0 178.3 83.9;" xml:space="preserve">
<style type="text/css">
<![CDATA[
	.st0{fill:#1428A0;}
	.st1{fill:#FFFFFF;}
	.st2{fill:#0077C8;}
	.st3{fill:#00B3E3;}
	.st4{fill:#00C3B2;}
]]>
</style>
<g>
	<path class="st0" d="M41,61.2C31,61.2,22.8,53,22.8,43c0-10,8.2-18.2,18.2-18.2S59.1,33,59.1,43C59.1,53,51,61.2,41,61.2"/>
	<path class="st1" d="M39.4,38.8c-0.1-0.3-0.1-0.7,0-0.9c0.1-0.5,0.5-1.1,1.6-1.1c1,0,1.6,0.6,1.6,1.5v1h4.2v-1.2
		c0-3.7-3.3-4.3-5.7-4.3c-3,0-5.5,1-5.9,3.8c-0.1,0.8-0.1,1.4,0,2.3c0.7,3.5,6.8,4.5,7.6,6.7c0.2,0.4,0.1,0.9,0,1.3
		c-0.1,0.6-0.5,1.1-1.7,1.1c-1.1,0-1.7-0.6-1.7-1.5l0-1.6h-4.6v1.3c0,3.8,3,4.9,6.2,4.9c3.1,0,5.6-1,6-3.9c0.2-1.5,0.1-2.4,0-2.8
		C46.3,41.9,39.8,40.8,39.4,38.8"/>
	<path class="st2" d="M16,43c0,13.8,11.2,25,25,25c6.9,0,13.1-2.8,17.7-7.3l-2.4-2.4c-3.9,3.9-9.3,6.3-15.3,6.3
		c-11.9,0-21.6-9.7-21.6-21.6S29.1,21.4,41,21.4c6,0,11.4,2.4,15.3,6.3l2.4-2.4C54.1,20.8,47.9,18,41,18C27.2,18,16,29.2,16,43"/>
	<path class="st3" d="M9.2,43c0,17.5,14.3,31.8,31.8,31.8c8.8,0,16.7-3.6,22.5-9.3L61,63.1c-5.1,5.1-12.2,8.3-20.1,8.3
		c-15.7,0-28.4-12.7-28.4-28.4c0-15.7,12.7-28.4,28.4-28.4c7.8,0,14.9,3.2,20.1,8.3l2.4-2.4c-5.8-5.8-13.7-9.3-22.5-9.3
		C23.4,11.2,9.2,25.5,9.2,43"/>
	<path class="st4" d="M41,78.2C21.5,78.2,5.8,62.5,5.8,43C5.8,23.6,21.5,7.8,41,7.8c9.7,0,18.5,3.9,24.9,10.3l2.4-2.4
		c-7-7-16.6-11.3-27.3-11.3C19.7,4.4,2.4,21.7,2.4,43S19.7,81.6,41,81.6c10.6,0,20.3-4.3,27.3-11.3l-2.4-2.4
		C59.5,74.3,50.7,78.2,41,78.2"/>
	<path class="st1" d="M80.8,18.5c-0.1-0.2,0-0.4,0-0.6c0.1-0.3,0.3-0.7,1-0.7c0.6,0,1,0.4,1,1v0.7h2.7v-0.8c0-2.3-2.1-2.7-3.6-2.7
		c-1.9,0-3.5,0.6-3.7,2.4c-0.1,0.5-0.1,0.9,0,1.4c0.5,2.2,4.3,2.8,4.8,4.2c0.1,0.3,0.1,0.6,0,0.8c-0.1,0.4-0.3,0.7-1,0.7
		c-0.7,0-1.1-0.4-1.1-1l0-1H78v0.8c0,2.4,1.9,3.1,3.9,3.1c1.9,0,3.5-0.7,3.8-2.5c0.1-0.9,0-1.5,0-1.8C85.2,20.4,81.1,19.7,80.8,18.5
		 M115.7,18.5c0-0.2,0-0.4,0-0.6c0.1-0.3,0.3-0.7,1-0.7c0.6,0,1,0.4,1,1v0.7h2.6v-0.7c0-2.3-2.1-2.7-3.6-2.7c-1.9,0-3.4,0.6-3.7,2.4
		c-0.1,0.5-0.1,0.9,0,1.4c0.5,2.2,4.2,2.8,4.8,4.2c0.1,0.3,0.1,0.6,0,0.8c-0.1,0.4-0.3,0.7-1,0.7c-0.7,0-1.1-0.4-1.1-1l0-1h-2.8v0.8
		c0,2.4,1.9,3.1,3.9,3.1c1.9,0,3.5-0.7,3.8-2.4c0.1-0.9,0-1.5,0-1.7C120.1,20.4,116,19.7,115.7,18.5 M140.1,24.3l-2.5-8.6h-4v10.6
		h2.6l-0.2-8.9l2.7,8.9h3.8V15.7H140L140.1,24.3z M89.5,15.7l-2,10.7h2.9l1.5-9.9l1.5,9.9h2.9l-2-10.7H89.5z M105.7,15.7l-1.4,8.4
		l-1.4-8.4h-4.4l-0.2,10.7h2.7l0.1-9.9l1.8,9.9h2.7l1.8-9.9l0.1,9.9h2.7l-0.2-10.7H105.7z M130.6,15.7h-2.7v7.9c0,0.1,0,0.3,0,0.4
		c-0.1,0.3-0.3,0.8-1,0.8c-0.7,0-1-0.5-1-0.8c0-0.1,0-0.3,0-0.4v-7.9h-2.7v7.7c0,0.2,0,0.6,0,0.7c0.2,2,1.8,2.7,3.7,2.7
		c2,0,3.6-0.7,3.7-2.7c0-0.1,0-0.5,0-0.7V15.7z M149.3,20.4V22h1.1v1.6c0,0.1,0,0.3,0,0.4c0,0.3-0.3,0.8-1.1,0.8
		c-0.8,0-1-0.5-1.1-0.8c0-0.1,0-0.3,0-0.4v-4.9c0-0.2,0-0.4,0-0.5c0.1-0.3,0.3-0.8,1.1-0.8c0.8,0,1,0.5,1.1,0.8c0,0.2,0,0.4,0,0.4
		v0.6h2.7v-0.4c0,0,0-0.4,0-0.7c-0.2-2-1.9-2.7-3.8-2.7c-1.9,0-3.5,0.6-3.8,2.7c0,0.2-0.1,0.5-0.1,0.7v4.5c0,0.2,0,0.3,0,0.7
		c0.2,2,1.9,2.7,3.8,2.7c1.9,0,3.6-0.7,3.8-2.7c0-0.4,0-0.5,0-0.7v-2.9H149.3z"/>
	<path class="st1" d="M78,54c0-9.6,7.2-16.5,16.5-16.5c6,0,11.3,3.2,14.1,8l-5.2,3.3c-1.8-3.3-4.7-5.4-8.8-5.4
		c-6.1,0-10.5,4.6-10.5,10.6c0,5.8,4.4,10.5,10.4,10.5c4.4,0,7.6-2.5,9.2-6l5.5,2.9c-2.8,5.5-8.2,9.1-14.5,9.1
		C84.6,70.5,78,63.2,78,54"/>
	<rect x="110.8" y="37.8" class="st1" width="6" height="32.5"/>
	<path class="st1" d="M143.4,70.3h-5.9v-2.9c-1.6,2.2-4.1,3.5-7.4,3.5c-6.1,0-9.9-4.1-9.9-11V44.6h6v14.6c0,4,1.8,6.5,5.5,6.5
		c3.3,0,5.7-2.5,5.7-7V44.6h5.9V70.3z"/>
	<path class="st1" d="M153,66.9v3.3h-5.9V37.8h5.9v10.1c1.8-2.3,4.9-3.8,8.3-3.8c6.5,0,12.7,4.9,12.7,13.4c0,8.4-6.4,13.4-12.6,13.4
		C158,70.8,154.9,69.4,153,66.9 M168.2,57.4c0-4.4-3.4-7.9-7.7-7.9c-4.4,0-7.6,3.6-7.6,7.9c0,4.4,3.3,8,7.6,8
		C164.8,65.4,168.2,61.8,168.2,57.4"/>
</g>
</svg>
